<svg xmlns="http://www.w3.org/2000/svg" width="17.001" height="17.047" viewBox="0 0 17.001 17.047"><g transform="translate(-3174.189 2613.29) rotate(-45)"><path d="M4082.029,438.815h4.5a2.909,2.909,0,0,0,0-5.815h-4.5a2.909,2.909,0,0,0,0,5.815Z" transform="translate(4.243 -27.27)" fill="#4ac496"/><path d="M4137.213,438.815h5.068a2.909,2.909,0,0,0,0-5.815h-5.068a2.909,2.909,0,0,0,0,5.815Z" transform="translate(-43.617 -27.27)" fill="#4ac496"/><path d="M4116.908,464.7a2.9,2.9,0,0,0,2.908-2.815v-4.5a2.91,2.91,0,0,0-5.816,0v4.5A2.9,2.9,0,0,0,4116.908,464.7Z" transform="translate(-24.679 -47.017)" fill="#4ac496"/><path d="M4116.908,408.236a2.9,2.9,0,0,0,2.908-2.815v-5.067a2.91,2.91,0,0,0-5.816,0v5.067A2.9,2.9,0,0,0,4116.908,408.236Z" transform="translate(-24.679 2.121)" fill="#4ac496"/></g></svg>