<svg xmlns="http://www.w3.org/2000/svg" width="18.613" height="18.613" viewBox="0 0 18.613 18.613"><g transform="translate(-4079.214 -397.539)"><path d="M4081.114,436.923h3.039a1.963,1.963,0,0,0,0-3.923h-3.039a1.963,1.963,0,0,0,0,3.923Z" transform="translate(0 -28.138)" fill="#4a69ff"/><path d="M4136.3,436.923h3.419a1.963,1.963,0,0,0,0-3.923H4136.3a1.963,1.963,0,0,0,0,3.923Z" transform="translate(-43.788 -28.138)" fill="#4a69ff"/><path d="M4115.962,461.4a1.953,1.953,0,0,0,1.961-1.9v-3.039a1.963,1.963,0,0,0-3.923,0V459.5A1.954,1.954,0,0,0,4115.962,461.4Z" transform="translate(-27.603 -45.249)" fill="#4a69ff"/><path d="M4115.962,404.756a1.953,1.953,0,0,0,1.961-1.9v-3.419a1.963,1.963,0,0,0-3.923,0v3.419A1.953,1.953,0,0,0,4115.962,404.756Z" transform="translate(-27.603)" fill="#4a69ff"/></g></svg>