<svg xmlns="http://www.w3.org/2000/svg" width="16" height="7.111" viewBox="0 0 16 7.111"><path d="M14.143,385.7A13.345,13.345,0,0,0,8,384a13.345,13.345,0,0,0-6.143,1.7A3.576,3.576,0,0,0,0,388.865v.542a1.671,1.671,0,0,0,1.633,1.7H14.367a1.671,1.671,0,0,0,1.633-1.7v-.542A3.576,3.576,0,0,0,14.143,385.7Zm.714,3.711a.505.505,0,0,1-.49.518H1.633a.505.505,0,0,1-.49-.518v-.542a2.388,2.388,0,0,1,1.241-2.117A12.233,12.233,0,0,1,8,385.185a12.233,12.233,0,0,1,5.616,1.563,2.388,2.388,0,0,1,1.241,2.117Z" transform="translate(0 -384)" fill="#4a69ff"/></svg>